# xmcd
# 
# Track frame offsets:
#     150
#     14708
#     33801
#     50581
#     59747
#     76186
#     93207
#     109137
#     132796
#     151339
#     164689
#     178317
#     195174
#     212822
#     239682
#     268538
#     288564
#     307612
# 
# Disc length: 4296
# 
# Revision: 0
# Processed by: cddbd v1.5.2PL0 Copyright (c) Steve Scherf et al.
# Submitted via: fre:ac v1.0.31
# 
DISCID=fa10c612
DTITLE=Blues - The Best Of Columbus Blues Vol. II
DYEAR=0
DGENRE=Blues
TTITLE0=Bentley's Boogie
TTITLE1=The Yellow Cross
TTITLE2=Easy Recipe
TTITLE3=Pop's Blues
TTITLE4=No Substitute For Love
TTITLE5=Queen Of Everything
TTITLE6=Captain Captain
TTITLE7=Wantin' All Your Love
TTITLE8=Wrong Side Of Town
TTITLE9=Come And Go With Me
TTITLE10=I Think You're Jivin'
TTITLE11=Papa Honks
TTITLE12=Stock Market Blues
TTITLE13=Back Of The Line
TTITLE14=Anthology Of The Blues
TTITLE15=Welfare Daddy
TTITLE16=Pistachio
TTITLE17=Extra Extra
EXTD=
EXTT0=
EXTT1=
EXTT2=
EXTT3=
EXTT4=
EXTT5=
EXTT6=
EXTT7=
EXTT8=
EXTT9=
EXTT10=
EXTT11=
EXTT12=
EXTT13=
EXTT14=
EXTT15=
EXTT16=
EXTT17=
PLAYORDER=
